<svg id="Layer_1" data-name="Layer 1" xmlns="http://www.w3.org/2000/svg" xmlns:xlink="http://www.w3.org/1999/xlink" viewBox="0 0 158.1 158.1"><defs><style>.cls-1{fill:#568cdb;}.cls-2{fill:#1c307a;}.cls-3{fill:none;stroke:#568cdb;stroke-miterlimit:10;stroke-width:0.5px;}.cls-4{fill:#ffca61;}.cls-5{fill:url(#linear-gradient);}</style><linearGradient id="linear-gradient" x1="600.14" y1="-853.44" x2="587.43" y2="-824.97" gradientTransform="matrix(0.99, -0.1, -0.1, -0.99, -597.78, -684.1)" gradientUnits="userSpaceOnUse"><stop offset="0" stop-color="#faaf40"/><stop offset="0.28" stop-color="#faab3d"/><stop offset="0.57" stop-color="#fc9e34"/><stop offset="0.87" stop-color="#fe8a26"/><stop offset="1" stop-color="#ff7e1e"/></linearGradient></defs><title>surgelogo</title><rect class="cls-1" width="158.1" height="158.1"/><circle class="cls-2" cx="79.01" cy="79.13" r="57.7"/><path class="cls-1" d="M66.91,120.43l19.2-26.3-12.4-24.2,24.6-11.8-15.5-25.6,52.3,60.2A58,58,0,1,0,79,136.83h1Z"/><circle class="cls-3" cx="79.01" cy="79.13" r="57.7"/><polygon class="cls-4" points="98.31 58.03 82.61 31.43 62.41 83.13 98.31 58.03"/><polygon class="cls-5" points="78.51 71.73 98.31 96.43 62.31 83.23 78.51 71.73"/><polygon class="cls-4" points="98.31 96.43 66.91 120.43 76.41 88.43 98.31 96.43"/><polyline class="cls-2" points="79.66 136.41 81.25 138.39 97.03 158.1 99.09 158.1 158.1 158.1 158.1 119.27 148.25 107.9 134.76 92.31"/></svg>